<?xml version="1.0" standalone="no"?>
<!DOCTYPE svg PUBLIC "-//W3C//DTD SVG 20010904//EN"
 "http://www.w3.org/TR/2001/REC-SVG-20010904/DTD/svg10.dtd">
<svg version="1.0" xmlns="http://www.w3.org/2000/svg"
 width="416.000000pt" height="416.000000pt" viewBox="0 0 416.000000 416.000000"
 preserveAspectRatio="xMidYMid meet">
<metadata>
Created by potrace 1.14, written by Peter Selinger 2001-2017
</metadata>
<g transform="translate(0.000000,416.000000) scale(0.100000,-0.100000)"
fill="#000000" stroke="none">
<path d="M1510 3575 c-221 -48 -419 -183 -575 -390 -29 -38 -62 -88 -72 -110
-45 -91 -46 -107 -48 -795 -1 -360 2 -690 7 -734 41 -385 260 -654 624 -771
176 -56 358 -66 466 -25 31 11 184 94 340 184 780 448 861 496 924 548 192
158 292 322 330 539 45 260 -55 619 -212 763 -54 49 -1143 681 -1253 727 -174
73 -378 97 -531 64z m30 -720 c50 -31 89 -59 87 -61 -6 -6 -207 110 -207 120
0 12 19 3 120 -59z m515 -312 c204 -121 432 -257 508 -303 155 -92 151 -79 47
-137 -667 -371 -946 -528 -953 -537 -6 -9 -2 514 8 969 2 77 4 162 4 188 1 27
4 46 9 44 4 -2 174 -103 377 -224z m770 -319 c-25 -19 -104 -60 -90 -47 6 6
28 22 50 37 42 28 73 36 40 10z m-1165 -960 c0 -200 -3 -283 -11 -279 -16 11
-9 565 7 565 2 0 4 -129 4 -286z"/>
</g>
</svg>
